<svg width="722" height="458" viewBox="0 0 722 458" fill="none" xmlns="http://www.w3.org/2000/svg">
<g clip-path="url(#clip0_609_104)">
<g filter="url(#filter0_i_609_104)">
<rect width="722" height="458" rx="25" fill="url(#paint0_linear_609_104)"/>
</g>
<path d="M226.088 357.624V354.672H229.496C230.184 354.672 230.76 354.536 231.224 354.264C231.704 353.992 232.064 353.616 232.304 353.136C232.56 352.656 232.688 352.104 232.688 351.48C232.688 350.856 232.56 350.304 232.304 349.824C232.064 349.344 231.704 348.976 231.224 348.72C230.76 348.448 230.184 348.312 229.496 348.312H226.088V345.36H229.208C230.68 345.36 231.928 345.6 232.952 346.08C233.992 346.56 234.784 347.248 235.328 348.144C235.872 349.024 236.144 350.072 236.144 351.288V351.672C236.144 352.888 235.872 353.944 235.328 354.84C234.784 355.72 233.992 356.408 232.952 356.904C231.928 357.384 230.68 357.624 229.208 357.624H226.088ZM223.16 363V345.36H226.568V363H223.16ZM241.357 363V345.48H244.693V363H241.357ZM244.213 363V360.12H252.157V363H244.213ZM244.213 355.536V352.656H251.533V355.536H244.213ZM244.213 348.36V345.48H251.965V348.36H244.213ZM260.982 363.096V359.928H264.606C265.518 359.928 266.326 359.792 267.03 359.52C267.75 359.232 268.358 358.832 268.854 358.32C269.35 357.808 269.726 357.208 269.982 356.52C270.254 355.816 270.39 355.04 270.39 354.192C270.39 353.312 270.254 352.528 269.982 351.84C269.726 351.136 269.35 350.536 268.854 350.04C268.358 349.544 267.75 349.168 267.03 348.912C266.326 348.656 265.518 348.528 264.606 348.528H260.982V345.36H264.39C265.974 345.36 267.358 345.592 268.542 346.056C269.726 346.52 270.71 347.16 271.494 347.976C272.278 348.776 272.862 349.696 273.246 350.736C273.646 351.76 273.846 352.824 273.846 353.928V354.456C273.846 355.512 273.646 356.552 273.246 357.576C272.862 358.6 272.278 359.528 271.494 360.36C270.71 361.192 269.726 361.856 268.542 362.352C267.358 362.848 265.974 363.096 264.39 363.096H260.982ZM258.054 363.096V345.36H261.462V363.096H258.054ZM279.298 363V345.36H282.706V363H279.298ZM290.002 363L284.626 355.368H288.442L293.986 363H290.002ZM281.698 357.144V354.384H286.162C286.786 354.384 287.322 354.256 287.77 354C288.234 353.744 288.594 353.384 288.85 352.92C289.106 352.456 289.234 351.928 289.234 351.336C289.234 350.728 289.106 350.192 288.85 349.728C288.594 349.264 288.234 348.904 287.77 348.648C287.322 348.392 286.786 348.264 286.162 348.264H281.698V345.36H285.802C287.21 345.36 288.426 345.568 289.45 345.984C290.49 346.4 291.29 347.032 291.85 347.88C292.41 348.728 292.69 349.792 292.69 351.072V351.456C292.69 352.752 292.402 353.816 291.826 354.648C291.266 355.48 290.474 356.104 289.45 356.52C288.426 356.936 287.21 357.144 285.802 357.144H281.698ZM306.969 363.456C305.385 363.456 304.009 363.176 302.841 362.616C301.689 362.056 300.729 361.328 299.961 360.432C299.209 359.52 298.641 358.544 298.257 357.504C297.889 356.448 297.705 355.432 297.705 354.456V353.928C297.705 352.856 297.897 351.792 298.281 350.736C298.665 349.664 299.241 348.696 300.009 347.832C300.793 346.968 301.761 346.28 302.913 345.768C304.065 345.24 305.417 344.976 306.969 344.976C308.505 344.976 309.849 345.24 311.001 345.768C312.153 346.28 313.113 346.968 313.881 347.832C314.665 348.696 315.249 349.664 315.633 350.736C316.017 351.792 316.209 352.856 316.209 353.928V354.456C316.209 355.432 316.017 356.448 315.633 357.504C315.265 358.544 314.697 359.52 313.929 360.432C313.177 361.328 312.217 362.056 311.049 362.616C309.897 363.176 308.537 363.456 306.969 363.456ZM306.969 360.288C307.865 360.288 308.665 360.128 309.369 359.808C310.089 359.488 310.697 359.048 311.193 358.488C311.705 357.912 312.089 357.264 312.345 356.544C312.617 355.808 312.753 355.032 312.753 354.216C312.753 353.336 312.617 352.528 312.345 351.792C312.089 351.056 311.705 350.416 311.193 349.872C310.697 349.328 310.089 348.904 309.369 348.6C308.649 348.296 307.849 348.144 306.969 348.144C306.073 348.144 305.265 348.296 304.545 348.6C303.825 348.904 303.209 349.328 302.697 349.872C302.201 350.416 301.817 351.056 301.545 351.792C301.289 352.528 301.161 353.336 301.161 354.216C301.161 355.032 301.289 355.808 301.545 356.544C301.817 357.264 302.201 357.912 302.697 358.488C303.209 359.048 303.825 359.488 304.545 359.808C305.265 360.128 306.073 360.288 306.969 360.288ZM335.458 363.456C333.906 363.456 332.594 363.208 331.522 362.712C330.466 362.216 329.658 361.536 329.098 360.672C328.538 359.792 328.258 358.8 328.258 357.696H331.594C331.594 358.16 331.722 358.616 331.978 359.064C332.234 359.496 332.642 359.848 333.202 360.12C333.778 360.392 334.53 360.528 335.458 360.528C336.29 360.528 336.986 360.408 337.546 360.168C338.106 359.928 338.522 359.616 338.794 359.232C339.066 358.832 339.202 358.384 339.202 357.888C339.202 357.264 338.938 356.768 338.41 356.4C337.882 356.016 337.066 355.776 335.962 355.68L334.426 355.56C332.746 355.416 331.402 354.896 330.394 354C329.402 353.088 328.906 351.888 328.906 350.4C328.906 349.28 329.17 348.32 329.698 347.52C330.226 346.704 330.962 346.08 331.906 345.648C332.866 345.2 333.986 344.976 335.266 344.976C336.594 344.976 337.738 345.208 338.698 345.672C339.658 346.136 340.402 346.792 340.93 347.64C341.458 348.472 341.722 349.456 341.722 350.592H338.386C338.386 350.112 338.266 349.672 338.026 349.272C337.802 348.856 337.458 348.528 336.994 348.288C336.546 348.032 335.97 347.904 335.266 347.904C334.594 347.904 334.034 348.016 333.586 348.24C333.138 348.464 332.802 348.768 332.578 349.152C332.354 349.536 332.242 349.952 332.242 350.4C332.242 350.944 332.442 351.424 332.842 351.84C333.242 352.24 333.874 352.472 334.738 352.536L336.274 352.68C337.522 352.776 338.618 353.04 339.562 353.472C340.506 353.904 341.234 354.488 341.746 355.224C342.274 355.96 342.538 356.848 342.538 357.888C342.538 358.992 342.25 359.968 341.674 360.816C341.098 361.648 340.274 362.296 339.202 362.76C338.146 363.224 336.898 363.456 335.458 363.456ZM361.609 363.456C360.057 363.456 358.745 363.208 357.673 362.712C356.617 362.216 355.809 361.536 355.249 360.672C354.689 359.792 354.409 358.8 354.409 357.696H357.745C357.745 358.16 357.873 358.616 358.129 359.064C358.385 359.496 358.793 359.848 359.353 360.12C359.929 360.392 360.681 360.528 361.609 360.528C362.441 360.528 363.137 360.408 363.697 360.168C364.257 359.928 364.673 359.616 364.945 359.232C365.217 358.832 365.353 358.384 365.353 357.888C365.353 357.264 365.089 356.768 364.561 356.4C364.033 356.016 363.217 355.776 362.113 355.68L360.577 355.56C358.897 355.416 357.553 354.896 356.545 354C355.553 353.088 355.057 351.888 355.057 350.4C355.057 349.28 355.321 348.32 355.849 347.52C356.377 346.704 357.113 346.08 358.057 345.648C359.017 345.2 360.137 344.976 361.417 344.976C362.745 344.976 363.889 345.208 364.849 345.672C365.809 346.136 366.553 346.792 367.081 347.64C367.609 348.472 367.873 349.456 367.873 350.592H364.537C364.537 350.112 364.417 349.672 364.177 349.272C363.953 348.856 363.609 348.528 363.145 348.288C362.697 348.032 362.121 347.904 361.417 347.904C360.745 347.904 360.185 348.016 359.737 348.24C359.289 348.464 358.953 348.768 358.729 349.152C358.505 349.536 358.393 349.952 358.393 350.4C358.393 350.944 358.593 351.424 358.993 351.84C359.393 352.24 360.025 352.472 360.889 352.536L362.425 352.68C363.673 352.776 364.769 353.04 365.713 353.472C366.657 353.904 367.385 354.488 367.897 355.224C368.425 355.96 368.689 356.848 368.689 357.888C368.689 358.992 368.401 359.968 367.825 360.816C367.249 361.648 366.425 362.296 365.353 362.76C364.297 363.224 363.049 363.456 361.609 363.456ZM382.437 363.456C380.853 363.456 379.477 363.176 378.309 362.616C377.157 362.056 376.197 361.328 375.429 360.432C374.677 359.52 374.109 358.544 373.725 357.504C373.357 356.448 373.173 355.432 373.173 354.456V353.928C373.173 352.856 373.365 351.792 373.749 350.736C374.133 349.664 374.709 348.696 375.477 347.832C376.261 346.968 377.229 346.28 378.381 345.768C379.533 345.24 380.885 344.976 382.437 344.976C383.973 344.976 385.317 345.24 386.469 345.768C387.621 346.28 388.581 346.968 389.349 347.832C390.133 348.696 390.717 349.664 391.101 350.736C391.485 351.792 391.677 352.856 391.677 353.928V354.456C391.677 355.432 391.485 356.448 391.101 357.504C390.733 358.544 390.165 359.52 389.397 360.432C388.645 361.328 387.685 362.056 386.517 362.616C385.365 363.176 384.005 363.456 382.437 363.456ZM382.437 360.288C383.333 360.288 384.133 360.128 384.837 359.808C385.557 359.488 386.165 359.048 386.661 358.488C387.173 357.912 387.557 357.264 387.813 356.544C388.085 355.808 388.221 355.032 388.221 354.216C388.221 353.336 388.085 352.528 387.813 351.792C387.557 351.056 387.173 350.416 386.661 349.872C386.165 349.328 385.557 348.904 384.837 348.6C384.117 348.296 383.317 348.144 382.437 348.144C381.541 348.144 380.733 348.296 380.013 348.6C379.293 348.904 378.677 349.328 378.165 349.872C377.669 350.416 377.285 351.056 377.013 351.792C376.757 352.528 376.629 353.336 376.629 354.216C376.629 355.032 376.757 355.808 377.013 356.544C377.285 357.264 377.669 357.912 378.165 358.488C378.677 359.048 379.293 359.488 380.013 359.808C380.733 360.128 381.541 360.288 382.437 360.288ZM404.595 363.456C402.963 363.456 401.587 363.144 400.467 362.52C399.347 361.896 398.491 361.024 397.899 359.904C397.323 358.768 397.035 357.44 397.035 355.92V345.48H400.443V356.112C400.443 356.944 400.603 357.68 400.923 358.32C401.243 358.944 401.707 359.432 402.315 359.784C402.939 360.12 403.699 360.288 404.595 360.288C405.475 360.288 406.219 360.12 406.827 359.784C407.451 359.432 407.915 358.944 408.219 358.32C408.539 357.696 408.699 356.96 408.699 356.112V345.48H412.107V355.92C412.107 357.44 411.819 358.768 411.243 359.904C410.683 361.024 409.843 361.896 408.723 362.52C407.603 363.144 406.227 363.456 404.595 363.456ZM424.473 363.456C422.921 363.456 421.609 363.208 420.537 362.712C419.481 362.216 418.673 361.536 418.113 360.672C417.553 359.792 417.273 358.8 417.273 357.696H420.609C420.609 358.16 420.737 358.616 420.993 359.064C421.249 359.496 421.657 359.848 422.217 360.12C422.793 360.392 423.545 360.528 424.473 360.528C425.305 360.528 426.001 360.408 426.561 360.168C427.121 359.928 427.537 359.616 427.809 359.232C428.081 358.832 428.217 358.384 428.217 357.888C428.217 357.264 427.953 356.768 427.425 356.4C426.897 356.016 426.081 355.776 424.977 355.68L423.441 355.56C421.761 355.416 420.417 354.896 419.409 354C418.417 353.088 417.921 351.888 417.921 350.4C417.921 349.28 418.185 348.32 418.713 347.52C419.241 346.704 419.977 346.08 420.921 345.648C421.881 345.2 423.001 344.976 424.281 344.976C425.609 344.976 426.753 345.208 427.713 345.672C428.673 346.136 429.417 346.792 429.945 347.64C430.473 348.472 430.737 349.456 430.737 350.592H427.401C427.401 350.112 427.281 349.672 427.041 349.272C426.817 348.856 426.473 348.528 426.009 348.288C425.561 348.032 424.985 347.904 424.281 347.904C423.609 347.904 423.049 348.016 422.601 348.24C422.153 348.464 421.817 348.768 421.593 349.152C421.369 349.536 421.257 349.952 421.257 350.4C421.257 350.944 421.457 351.424 421.857 351.84C422.257 352.24 422.889 352.472 423.753 352.536L425.289 352.68C426.537 352.776 427.633 353.04 428.577 353.472C429.521 353.904 430.249 354.488 430.761 355.224C431.289 355.96 431.553 356.848 431.553 357.888C431.553 358.992 431.265 359.968 430.689 360.816C430.113 361.648 429.289 362.296 428.217 362.76C427.161 363.224 425.913 363.456 424.473 363.456ZM435.224 363L441.2 345.48H446.768L452.912 363H449.408L444.2 347.808L445.424 348.336H442.424L443.672 347.808L438.632 363H435.224ZM439.4 358.344L440.48 355.464H447.584L448.64 358.344H439.4Z" fill="#FEFBFF"/>
<path fill-rule="evenodd" clip-rule="evenodd" d="M94.6654 319.851C94.6654 319.852 94.6657 319.826 94.6766 319.771C94.6871 319.717 94.7054 319.646 94.7347 319.559C94.7935 319.385 94.8901 319.165 95.0334 318.917C95.32 318.421 95.7759 317.841 96.4342 317.301C97.733 316.235 99.8636 315.292 103.14 315.533C116.1 316.484 123.415 325.41 123.415 332.161V372.168C123.415 372.805 123.268 373.099 123.132 373.241C123.004 373.375 122.718 373.546 122.028 373.546H114.306C113.616 373.546 113.33 373.375 113.202 373.241C113.066 373.1 112.919 372.805 112.919 372.168V335.238C112.919 332.828 111.735 330.421 109.988 328.634C108.238 326.842 105.817 325.566 103.213 325.566H94.6654V319.851ZM103.213 327.566H94.6654V372.168C94.6654 373.162 94.4817 374.108 93.7928 374.763C93.1156 375.407 92.1813 375.546 91.2784 375.546H83.4154C82.6084 375.546 81.7233 375.389 81.0382 374.792C80.3257 374.171 80.0284 373.251 80.0284 372.168V334.819C80.0284 332.956 81.0921 330.668 82.6635 328.878C84.2482 327.074 86.5354 325.566 89.1714 325.566H92.6654V319.851C92.6654 319.284 92.9171 318.582 93.3016 317.917C93.7056 317.217 94.317 316.45 95.1659 315.754C96.8815 314.347 99.525 313.262 103.287 313.538C117.005 314.545 125.415 324.098 125.415 332.161V372.168C125.415 373.069 125.212 373.963 124.575 374.626C123.931 375.297 123.024 375.546 122.028 375.546H114.306C113.311 375.546 112.403 375.297 111.759 374.626C111.123 373.963 110.919 373.069 110.919 372.168V335.238C110.919 333.463 110.026 331.534 108.558 330.031C107.093 328.532 105.161 327.566 103.213 327.566ZM89.1714 327.566H92.6654V372.168C92.6654 372.991 92.498 373.235 92.4146 373.314C92.3196 373.404 92.0604 373.546 91.2784 373.546H83.4154C82.8182 373.546 82.5098 373.422 82.3524 373.285C82.2226 373.171 82.0284 372.902 82.0284 372.168V334.819C82.0284 333.604 82.7896 331.766 84.1664 330.198C85.5299 328.645 87.3142 327.566 89.1714 327.566ZM164.111 381.128C164.111 381.13 164.11 381.156 164.1 381.209C164.089 381.262 164.071 381.333 164.042 381.42C163.983 381.595 163.886 381.814 163.743 382.063C163.457 382.559 163.001 383.139 162.342 383.679C161.043 384.744 158.913 385.687 155.636 385.447C142.676 384.495 135.361 375.569 135.361 368.819V328.812C135.361 328.175 135.508 327.88 135.644 327.739C135.772 327.605 136.058 327.434 136.748 327.434H144.471C145.16 327.434 145.446 327.605 145.575 327.739C145.71 327.88 145.858 328.175 145.858 328.812V365.741C145.858 368.151 147.042 370.559 148.788 372.346C150.539 374.137 152.96 375.414 155.563 375.414H164.111V381.128V381.128ZM155.563 373.414H164.111V328.812C164.111 327.817 164.295 326.872 164.984 326.216C165.661 325.572 166.595 325.434 167.498 325.434H175.361C176.168 325.434 177.053 325.59 177.738 326.187C178.451 326.808 178.748 327.728 178.748 328.812V366.161C178.748 368.023 177.684 370.312 176.113 372.101C174.528 373.906 172.241 375.414 169.605 375.414H166.111V381.128C166.111 381.695 165.859 382.397 165.475 383.063C165.071 383.762 164.459 384.529 163.611 385.225C161.895 386.632 159.252 387.718 155.49 387.441C141.772 386.434 133.361 376.882 133.361 368.819V328.812C133.361 327.91 133.565 327.016 134.201 326.353C134.845 325.683 135.753 325.434 136.748 325.434H144.471C145.466 325.434 146.373 325.683 147.017 326.353C147.654 327.016 147.858 327.91 147.858 328.812V365.741C147.858 367.516 148.75 369.445 150.219 370.948C151.683 372.447 153.615 373.414 155.563 373.414ZM169.605 373.414H166.111V328.812C166.111 327.988 166.279 327.745 166.362 327.666C166.457 327.575 166.716 327.434 167.498 327.434H175.361C175.958 327.434 176.267 327.558 176.424 327.695C176.554 327.808 176.748 328.077 176.748 328.812V366.161C176.748 367.376 175.987 369.214 174.61 370.782C173.247 372.334 171.462 373.414 169.605 373.414Z" fill="#FEFBFF"/>
<circle cx="581.889" cy="86.4971" r="45.7505" fill="#E71924"/>
<circle cx="637.647" cy="86.4971" r="45.7505" fill="#F99F19"/>
<path fill-rule="evenodd" clip-rule="evenodd" d="M609.768 122.595C620.636 114.23 627.64 101.092 627.64 86.3172C627.64 71.5428 620.636 58.404 609.768 50.0396C598.9 58.404 591.897 71.5428 591.897 86.3172C591.897 101.092 598.9 114.23 609.768 122.595Z" fill="#F26520"/>
<rect x="80.4209" y="156.195" width="97.9347" height="69.3406" rx="6.07624" fill="url(#paint1_linear_609_104)" stroke="#211F21" stroke-width="2.14455"/>
<path d="M80.7783 178.713H110.087" stroke="#211F21" stroke-width="2" stroke-linecap="round"/>
<path d="M80.7783 200.873H109.445" stroke="#211F21" stroke-width="2" stroke-linecap="round"/>
<path d="M149.404 200.873H177.998" stroke="#211F21" stroke-width="2" stroke-linecap="round"/>
<path d="M148.975 179.428H177.998" stroke="#211F21" stroke-width="2" stroke-linecap="round"/>
<circle cx="129.388" cy="166.561" r="2.14455" fill="#211F21"/>
<path d="M231.053 205.824C236.325 192.59 236.926 185.119 231.053 171.645C230.43 170.215 231.053 169.024 231.768 168.786C232.483 168.547 233.589 168.786 234.27 170.215C241.188 184.73 240.767 192.87 234.627 207.387C233.912 208.817 232.575 208.998 231.768 208.46C230.824 207.831 230.608 206.941 231.053 205.824Z" fill="#FEFBFF"/>
<path d="M223.547 172.717C222.832 173.075 222.375 174.43 223.19 175.934C227.999 185.94 227.801 191.662 223.19 202.026C222.686 203.071 222.998 204.226 223.905 204.528C224.977 204.886 225.913 204.125 226.406 203.098C231.701 192.084 231.84 185.756 226.406 174.147C225.905 173.075 224.619 172.181 223.547 172.717Z" fill="#FEFBFF"/>
<path d="M216.399 177.364C215.326 177.721 215.136 178.908 215.684 180.223C218.53 187.063 218.979 190.898 215.684 197.737C215.041 198.929 214.83 200.193 216.041 200.596C217.252 201 218.126 200.363 218.543 199.524C222.766 191.149 221.82 186.454 218.543 178.079C218.263 177.364 217.471 177.006 216.399 177.364Z" fill="#FEFBFF"/>
<path d="M208.893 180.223C207.82 180.938 207.668 182.022 208.535 183.797C210.344 187.564 210.303 189.68 208.535 193.448C207.713 195.11 207.463 197.022 208.893 197.38C210.322 197.737 210.957 197.229 211.752 195.235C213.578 189.987 213.756 187.02 211.752 181.653C211.291 180.261 210.322 179.508 208.893 180.223Z" fill="#FEFBFF"/>
<path d="M145.115 170.849C142.372 161.508 137.251 156.91 129.03 156.91C119.023 156.91 116.194 164.53 110.087 178.355C113.998 187.507 114.039 192.437 110.087 200.873C116.494 219.254 121.24 224.915 129.388 224.821C140.111 224.821 143.163 215.733 149.046 200.873C145.952 192.497 145.622 187.875 148.5 179.5" stroke="#211F21" stroke-width="2" stroke-linecap="round"/>
</g>
<defs>
<filter id="filter0_i_609_104" x="0" y="0" width="725" height="461" filterUnits="userSpaceOnUse" color-interpolation-filters="sRGB">
<feFlood flood-opacity="0" result="BackgroundImageFix"/>
<feBlend mode="normal" in="SourceGraphic" in2="BackgroundImageFix" result="shape"/>
<feColorMatrix in="SourceAlpha" type="matrix" values="0 0 0 0 0 0 0 0 0 0 0 0 0 0 0 0 0 0 127 0" result="hardAlpha"/>
<feOffset dx="3" dy="3"/>
<feGaussianBlur stdDeviation="3"/>
<feComposite in2="hardAlpha" operator="arithmetic" k2="-1" k3="1"/>
<feColorMatrix type="matrix" values="0 0 0 0 1 0 0 0 0 1 0 0 0 0 1 0 0 0 0.25 0"/>
<feBlend mode="normal" in2="shape" result="effect1_innerShadow_609_104"/>
</filter>
<linearGradient id="paint0_linear_609_104" x1="610.09" y1="61.83" x2="354.096" y2="526.995" gradientUnits="userSpaceOnUse">
<stop stop-color="#A950C4"/>
<stop offset="1" stop-color="#82269E"/>
</linearGradient>
<linearGradient id="paint1_linear_609_104" x1="171" y1="165" x2="87" y2="221" gradientUnits="userSpaceOnUse">
<stop stop-color="#F4F4F4"/>
<stop offset="1" stop-color="#D6D6D6"/>
</linearGradient>
<clipPath id="clip0_609_104">
<rect width="722" height="458" fill="white"/>
</clipPath>
</defs>
</svg>
